<?xml version="1.0" standalone="no"?>
 <!DOCTYPE svg PUBLIC "-//W3C//DTD SVG 1.1//EN" 
 "http://www.w3.org/Graphics/SVG/1.1/DTD/svg11.dtd"> 
<svg
  xmlns:svg="http://www.w3.org/2000/svg"
  xmlns="http://www.w3.org/2000/svg"
  xmlns:xlink="http://www.w3.org/1999/xlink"
  version="1.1"
  width="297.0022mm" height="210.0072mm" viewBox="0.0000 0.0000 297.0022 210.0072">
<title>SVG Image created as v2_1-Edge_Cuts.svg date 2025/09/24 21:33:37 </title>
  <desc>Image generated by PCBNEW </desc>
<g style="fill:#000000; fill-opacity:1.0000;stroke:#000000; stroke-opacity:1.0000;
stroke-linecap:round; stroke-linejoin:round;"
 transform="translate(0 0) scale(1 1)">
</g>
<g style="fill:none; 
stroke:#000000; stroke-width:0.0500; stroke-opacity:1; 
stroke-linecap:round; stroke-linejoin:round;">
<path d="M105.0000 102.5000
L105.0000 103.5000
" />
<path d="M53.0000 103.5000
L50.0000 103.5000
" />
<path d="M91.6424 103.5000
L82.0000 103.5000
" />
<path d="M139.0000 189.0000
L147.0000 189.0000
" />
<path d="M139.0000 189.0000
L53.0000 189.0000
" />
<path d="M69.0000 103.5000
L69.0000 102.5000
" />
<path d="M95.0000 102.5000
L105.0000 102.5000
" />
<path d="M50.0000 186.0000 A3.0000 3.0000 0.0 0 0 53.0000 189.0000" />
<path d="M139.0000 28.0000
L147.0000 28.0000
" />
<path d="M79.0000 103.5000
L69.0000 103.5000
" />
<path d="M150.0000 102.5000
L147.0000 102.5000
" />
<path d="M66.0000 103.5000
L56.0000 103.5000
" />
<path d="M95.0000 103.5000
L95.0000 102.5000
" />
<path d="M91.6424 102.5000
L91.6424 103.5000
" />
<path d="M134.0000 102.5000
L144.0000 102.5000
" />
<path d="M150.0000 31.0000 A3.0000 3.0000 0.0 0 0 147.0000 28.0000" />
<path d="M147.0000 103.5000
L150.0000 103.5000
" />
<path d="M108.0000 103.5000
L108.0000 102.5000
" />
<path d="M66.0000 102.5000
L66.0000 103.5000
" />
<path d="M131.0000 102.5000
L131.0000 103.5000
" />
<path d="M56.0000 103.5000
L56.0000 102.5000
" />
<path d="M50.0000 134.5000
L50.0000 108.5000
" />
<path d="M134.0000 103.5000
L134.0000 102.5000
" />
<path d="M147.0000 102.5000
L147.0000 103.5000
" />
<path d="M82.0000 103.5000
L82.0000 102.5000
" />
<path d="M82.0000 102.5000
L91.6424 102.5000
" />
<path d="M53.0000 102.5000
L53.0000 103.5000
" />
<path d="M69.0000 102.5000
L79.0000 102.5000
" />
<path d="M50.0000 102.5000
L53.0000 102.5000
" />
<path d="M150.0000 108.5000
L150.0000 103.5000
" />
<path d="M121.0000 103.5000
L121.0000 102.5000
" />
<path d="M53.0000 28.0000
L139.0000 28.0000
" />
<path d="M118.0000 103.5000
L108.0000 103.5000
" />
<path d="M150.0000 124.5000
L150.0000 108.5000
" />
<path d="M147.0000 189.0000 A3.0000 3.0000 0.0 0 0 150.0000 186.0000" />
<path d="M144.0000 102.5000
L144.0000 103.5000
" />
<path d="M53.0000 28.0000 A3.0000 3.0000 0.0 0 0 50.0000 31.0000" />
<path d="M150.0000 124.5000
L150.0000 186.0000
" />
<path d="M118.0000 102.5000
L118.0000 103.5000
" />
<path d="M108.0000 102.5000
L118.0000 102.5000
" />
<path d="M50.0000 108.5000
L50.0000 103.5000
" />
<path d="M131.0000 103.5000
L121.0000 103.5000
" />
<path d="M121.0000 102.5000
L131.0000 102.5000
" />
<path d="M79.0000 102.5000
L79.0000 103.5000
" />
<path d="M105.0000 103.5000
L95.0000 103.5000
" />
<path d="M150.0000 102.5000
L150.0000 31.0000
" />
<path d="M50.0000 102.5000
L50.0000 31.0000
" />
<path d="M50.0000 186.0000
L50.0000 134.5000
" />
<path d="M144.0000 103.5000
L134.0000 103.5000
" />
<path d="M56.0000 102.5000
L66.0000 102.5000
" />
</g> 
</svg>
